<svg width="720" height="720" viewBox="0 0 720 720" fill="none" xmlns="http://www.w3.org/2000/svg">
<path d="M338.527 344.368C359.712 356.924 386.874 349.84 399.194 328.544L471.531 203.507C483.851 182.211 476.665 154.769 455.479 142.212C434.294 129.656 407.132 136.74 394.812 158.036L322.474 283.073C310.154 304.369 317.341 331.811 338.527 344.368Z" fill="#5ADEAF"/>
<path d="M382.85 344.368C361.664 356.925 334.503 349.84 322.183 328.545L249.844 203.505C237.524 182.21 244.711 154.767 265.896 142.211C287.082 129.654 314.243 136.739 326.563 158.034L398.902 283.074C411.222 304.369 404.035 331.812 382.85 344.368Z" fill="#31D69B"/>
<path d="M116 404.702C116 380.112 135.975 360.178 160.615 360.178H319.245C343.885 360.178 363.859 380.112 363.859 404.702C363.859 429.292 343.885 449.226 319.245 449.226H160.615C135.975 449.226 116 429.292 116 404.702Z" fill="#4757E5"/>
<path d="M582.686 443.281C603.948 430.855 611.304 403.457 599.115 382.086L471.602 158.516C459.413 137.146 432.296 129.895 411.033 142.321C389.771 154.748 382.416 182.146 394.604 203.516L522.118 427.086C534.307 448.457 561.424 455.707 582.686 443.281Z" fill="#31D69B"/>
<path d="M146.982 144.417C146.982 139.946 150.614 136.322 155.094 136.322H288.262C312.902 136.322 332.877 156.256 332.877 180.846C332.877 205.436 312.902 225.37 288.262 225.37H228.1C183.3 225.37 146.982 189.126 146.982 144.417Z" fill="#4757E5"/>
<path d="M138.388 443.281C117.126 430.854 109.77 403.457 121.959 382.086L249.472 158.516C261.661 137.146 288.778 129.895 310.041 142.321C331.303 154.748 338.659 182.146 326.47 203.516L198.956 427.086C186.768 448.457 159.65 455.707 138.388 443.281Z" fill="#4757E5"/>
<path d="M215.013 568.899H238.172V574.461H215.013V568.899ZM212.587 517.666H240.754V579.866H234.886V523.228H218.221V580.728H212.587V517.666ZM189.428 524.089H195.374V539.835C195.374 553.153 192.714 571.171 176.519 582.765C175.736 581.512 173.624 579.24 172.372 578.378C187.629 567.489 189.428 551.9 189.428 539.757V524.089ZM181.37 521.426H207.736V526.91H181.37V521.426ZM173.233 542.499H210.084V548.139H173.233V542.499ZM193.497 552.84C196.548 555.582 207.267 567.646 209.771 570.622L205.78 575.558C202.494 570.779 193.497 560.047 189.898 556.208L193.497 552.84ZM182.074 510.85L187.785 511.947C185.516 522.444 181.761 532.55 177.145 539.209C176.127 538.269 173.624 536.624 172.294 535.84C176.988 529.808 180.196 520.407 182.074 510.85Z" fill="black"/>
<path d="M296.461 542.812H340.118V547.983H302.094V582.687H296.461V542.812ZM294.818 517.196H345.361V522.288H294.818V517.196ZM338.162 542.812H343.639V576.968C343.639 579.71 343.013 580.885 340.979 581.668C339.023 582.373 335.581 582.373 330.104 582.373C329.869 581.12 329.165 579.475 328.539 578.3C332.373 578.378 335.815 578.378 336.754 578.3C337.85 578.221 338.162 577.986 338.162 577.046V542.812ZM307.884 510.928H313.439V528.32H307.884V510.928ZM326.348 510.928H331.903V528.32H326.348V510.928ZM294.348 530.748H345.908V535.762H294.348V530.748ZM310.622 556.835L313.83 553.936C316.334 556.443 319.307 560.047 320.637 562.397L317.194 565.766C315.942 563.337 313.126 559.498 310.622 556.835ZM311.248 533.412H316.177C316.099 551.351 314.534 563.65 306.397 572.268C305.693 571.406 303.659 569.682 302.485 568.899C310.309 561.614 311.326 549.628 311.248 533.412ZM324.627 556.208L328.461 553.545C331.59 557.618 335.268 563.102 336.676 566.549L332.764 569.682C331.277 566.079 327.835 560.36 324.627 556.208ZM325.175 533.098L330.025 533.255C329.791 551.821 328.304 564.904 320.324 574.069C319.541 573.286 317.507 571.719 316.255 571.014C324.001 563.024 325.175 550.333 325.175 533.098ZM278.544 516.569L282.221 512.652C286.289 515.002 291.531 518.449 294.113 520.956L290.358 525.343C287.854 522.836 282.69 519.076 278.544 516.569ZM274.71 538.19L278.231 534.117C282.377 536.154 287.776 539.287 290.514 541.559L286.915 546.181C284.333 543.752 279.013 540.384 274.71 538.19ZM276.353 577.438C279.952 571.563 285.038 561.614 288.793 553.075L293.331 556.678C289.967 564.747 285.429 574.148 281.517 581.198L276.353 577.438Z" fill="black"/>
<path d="M389.801 517.352H395.512V582.765H389.801V517.352ZM376.578 532.942H407.092V538.504H376.578V532.942ZM390.114 535.057L393.791 536.624C390.661 547.669 384.402 561.379 378.378 568.664C377.83 567.019 376.422 564.59 375.405 563.259C381.038 556.992 387.297 544.771 390.114 535.057ZM402.319 511.947L405.918 516.726C398.72 519.546 387.923 521.661 379.004 522.914C378.691 521.583 377.908 519.624 377.282 518.292C386.124 516.882 396.373 514.61 402.319 511.947ZM395.199 539.522C397.234 541.637 404.745 551.116 406.466 553.466L402.789 558.088C400.911 554.328 394.808 545.006 392.461 541.951L395.199 539.522ZM432.833 510.85H438.623V582.843H432.833V510.85ZM406.153 561.849L447.777 555.111L448.716 560.595L407.014 567.411L406.153 561.849ZM412.49 519.781L416.246 516.334C420.94 519.311 426.495 523.776 429.156 527.066L425.087 530.905C422.583 527.615 417.107 522.914 412.49 519.781ZM409.361 540.149L413.038 536.702C418.124 539.757 424.305 544.457 427.2 547.826L423.288 551.743C420.393 548.296 414.446 543.361 409.361 540.149Z" fill="black"/>
<path d="M504.422 523.228H547.533V528.711H504.422V523.228ZM506.066 540.462H540.569V545.867H506.066V540.462ZM522.887 510.85H528.677V543.517H522.887V510.85ZM513.655 544.457C519.523 560.909 532.119 573.129 550.428 577.986C549.098 579.161 547.454 581.512 546.594 583C527.816 577.438 515.141 564.434 508.334 546.024L513.655 544.457ZM540.1 540.462H541.195L542.291 540.227L545.968 541.872C539.318 564.355 522.261 577.125 503.092 582.922C502.545 581.355 501.058 578.848 499.963 577.595C517.88 572.973 534.388 560.83 540.1 541.481V540.462ZM477.743 552.37C484.315 550.725 494.017 548.061 503.327 545.397L504.031 550.725C495.503 553.31 486.427 555.973 479.464 558.01L477.743 552.37ZM478.76 526.675H503.327V532.237H478.76V526.675ZM488.853 510.928H494.642V575.871C494.642 579.161 493.86 580.807 491.748 581.668C489.713 582.608 486.427 582.765 481.029 582.765C480.872 581.277 480.012 578.926 479.229 577.36C482.906 577.438 486.349 577.438 487.366 577.36C488.383 577.36 488.853 576.968 488.853 575.871V510.928Z" fill="black"/>
</svg>
