<svg width="720" height="720" viewBox="0 0 720 720" fill="none" xmlns="http://www.w3.org/2000/svg">
<path d="M335.016 418.725C359.104 432.991 389.987 424.942 403.995 400.749L486.244 258.694C500.252 234.5 492.081 203.323 467.993 189.058C443.905 174.793 413.022 182.841 399.013 207.035L316.764 349.089C302.756 373.283 310.928 404.46 335.016 418.725Z" fill="#5ADEAF"/>
<path d="M385.412 418.726C361.324 432.991 330.441 424.943 316.433 400.749L234.183 258.692C220.175 234.499 228.346 203.321 252.434 189.056C276.522 174.791 307.405 182.839 321.413 207.033L403.664 349.09C417.672 373.283 409.5 404.46 385.412 418.726Z" fill="#31D69B"/>
<path d="M82 487.27C82 459.334 104.711 436.687 132.727 436.687H313.092C341.108 436.687 363.819 459.334 363.819 487.27C363.819 515.207 341.108 537.854 313.092 537.854H132.727C104.711 537.854 82 515.207 82 487.27Z" fill="#4757E5"/>
<path d="M612.629 531.1C636.804 516.982 645.168 485.856 631.309 461.577L486.324 207.581C472.466 183.302 441.633 175.064 417.457 189.182C393.282 203.299 384.918 234.426 398.777 258.705L543.762 512.701C557.621 536.98 588.453 545.218 612.629 531.1Z" fill="#31D69B"/>
<path d="M117.227 191.563C117.227 186.483 121.357 182.366 126.451 182.366H277.865C305.881 182.366 328.592 205.013 328.592 232.949C328.592 260.885 305.881 283.532 277.865 283.532H209.459C158.521 283.532 117.227 242.356 117.227 191.563Z" fill="#4757E5"/>
<path d="M107.455 531.1C83.2798 516.982 74.9165 485.856 88.7752 461.577L233.76 207.58C247.619 183.302 278.452 175.064 302.627 189.182C326.803 203.299 335.166 234.426 321.307 258.705L176.322 512.701C162.464 536.98 131.631 545.218 107.455 531.1Z" fill="#4757E5"/>
</svg>
